:SAMPLES-PER-SECOND 30
:FULLY-SPECIFIED
:DEGREES
476
root  33.6774 34.0553 13.8461 -170.347 37.4334 -176.003
LeftUpLeg  -8.77892 12.5386 10.969
LeftLeg  14.9355 24.0528 4.63494
LeftFoot  5.09632 -0.108306 2.21972
LeftToes  -23.4195 2.48695e-006 -1.03773e-007
Spine  0.911451 0.124903 1.61266
Spine1  1.34256 0.171842 3.20579
RightShoulder  0.189445 8.53317 9.69196
RightArm  -26.4632 -14.9405 70.4027
RightForeArm  32.9875 13.2236 2.36869
RightHand  0.218674 -5.1438 -4.55463
LeftShoulder1  0.0987614 -2.43506 -11.2139
LeftArm  -11.9785 12.5274 -70.5412
LeftForeArm  32.287 -14.2396 -2.5575
LeftHand  0.104104 3.51432 3.06964
HEad  -16.4286 -26.914 6.63732
RightUpLeg  -12.4088 -6.43397 3.40669
RightLeg  17.0546 26.1259 5.9893
RightFoot  -1.83339 -0.0202893 -0.890765
RightToes  -22.4346 -0.101678 -0.202326
477
root  33.68 34.0552 13.8395 -170.344 37.3953 -176.004
LeftUpLeg  -8.79467 12.554 10.9726
LeftLeg  14.9605 23.9962 4.6352
LeftFoot  5.0753 -0.107306 2.20416
LeftToes  -23.43 2.48695e-006 -1.03773e-007
Spine  0.913051 0.130628 1.62009
Spine1  1.34597 0.183138 3.22021
RightShoulder  0.189446 8.53856 9.69767
RightArm  -26.4581 -14.9548 70.4019
RightForeArm  32.9676 13.1782 2.36027
RightHand  0.21952 -5.12181 -4.58934
LeftShoulder1  0.0987614 -2.43071 -11.2087
LeftArm  -11.9001 12.5416 -70.5784
LeftForeArm  32.3253 -14.2584 -2.56098
LeftHand  0.104055 3.51113 3.06255
HEad  -16.3345 -26.995 6.66261
RightUpLeg  -12.4092 -6.43238 3.40691
RightLeg  17.0812 26.0778 5.99135
RightFoot  -1.84572 -0.0200107 -0.895093
RightToes  -22.4934 -0.101678 -0.202326
478
root  33.6823 34.0552 13.8343 -170.336 37.3388 -176.005
LeftUpLeg  -8.80854 12.5598 10.9749
LeftLeg  14.9533 23.9461 4.62311
LeftFoot  5.07001 -0.106798 2.19625
LeftToes  -23.4291 2.48695e-006 -1.03773e-007
Spine  0.914488 0.136829 1.6255
Spine1  1.34763 0.195018 3.23205
RightShoulder  0.189461 8.50905 9.69523
RightArm  -26.5025 -14.9603 70.4253
RightForeArm  32.9023 13.1421 2.35361
RightHand  0.219778 -5.1776 -4.64893
LeftShoulder1  0.0987614 -2.39088 -11.2149
LeftArm  -11.8739 12.5303 -70.6042
LeftForeArm  32.2683 -14.2395 -2.55748
LeftHand  0.104509 3.5436 3.12985
HEad  -16.1774 -27.0807 6.69859
RightUpLeg  -12.4077 -6.4585 3.40962
RightLeg  17.0829 26.0563 5.98754
RightFoot  -1.85833 -0.020037 -0.894684
RightToes  -22.5047 -0.101678 -0.202326
479
root  33.6838 34.0551 13.8333 -170.329 37.3088 -176.005
LeftUpLeg  -8.80871 12.5615 10.9769
LeftLeg  14.926 23.922 4.60731
LeftFoot  5.076 -0.106589 2.19301
LeftToes  -23.4057 2.48695e-006 -1.03773e-007
Spine  0.915705 0.135234 1.62823
Spine1  1.34898 0.19185 3.23799
RightShoulder  0.189473 8.47626 9.68612
RightArm  -26.543 -14.9523 70.4488
RightForeArm  32.9303 13.1522 2.35548
RightHand  0.219499 -5.18721 -4.63957
LeftShoulder1  0.0987614 -2.37169 -11.2093
LeftArm  -11.8943 12.5219 -70.6193
LeftForeArm  32.2182 -14.2246 -2.55474
LeftHand  0.104407 3.55901 3.13309
HEad  -16.0419 -27.0964 6.69248
RightUpLeg  -12.4059 -6.48381 3.41449
RightLeg  17.0715 26.0502 5.98101
RightFoot  -1.86027 -0.0202074 -0.892037
RightToes  -22.4562 -0.101678 -0.202326
480
root  33.6882 34.0548 13.8327 -170.316 37.2409 -176.004
LeftUpLeg  -8.81234 12.6056 10.9817
LeftLeg  14.8499 23.8284 4.55869
LeftFoot  5.09123 -0.10658 2.19286
LeftToes  -23.3362 2.48695e-006 -1.03773e-007
Spine  0.916642 0.130102 1.63098
Spine1  1.34996 0.182669 3.24207
RightShoulder  0.189465 8.45716 9.65638
RightArm  -26.5841 -14.9366 70.4832
RightForeArm  32.9795 13.1611 2.35709
RightHand  0.219406 -5.14058 -4.59712
LeftShoulder1  0.0987614 -2.3524 -11.1728
LeftArm  -11.9013 12.5304 -70.6379
LeftForeArm  32.2001 -14.2125 -2.55248
LeftHand  0.10445 3.52375 3.10869
HEad  -15.8319 -27.1205 6.69758
RightUpLeg  -12.4052 -6.50844 3.42682
RightLeg  17.0477 26.0096 5.96147
RightFoot  -1.85676 -0.0203557 -0.889733
RightToes  -22.4263 -0.101678 -0.202326
481
root  33.6923 34.0541 13.8323 -170.292 37.1771 -176.002
LeftUpLeg  -8.82693 12.5946 10.9892
LeftLeg  14.8018 23.7846 4.53078
LeftFoot  5.1117 -0.106866 2.19731
LeftToes  -23.3151 2.48695e-006 -1.03773e-007
Spine  0.91724 0.116371 1.63236
Spine1  1.35052 0.157357 3.24444
RightShoulder  0.189455 8.45162 9.63557
RightArm  -26.6049 -14.9082 70.4944
RightForeArm  33.02 13.1893 2.36229
RightHand  0.218489 -5.13315 -4.53468
LeftShoulder1  0.0987614 -2.36349 -11.1202
LeftArm  -11.8535 12.5496 -70.6448
LeftForeArm  32.1462 -14.1933 -2.54893
LeftHand  0.104821 3.44975 3.08376
HEad  -15.7405 -27.0697 6.71752
RightUpLeg  -12.4069 -6.52662 3.43796
RightLeg  17.0093 25.9834 5.93835
RightFoot  -1.84555 -0.0203157 -0.890354
RightToes  -22.3972 -0.101678 -0.202326
482
root  33.6984 34.053 13.8328 -170.279 37.1347 -175.998
LeftUpLeg  -8.83058 12.607 11.0044
LeftLeg  14.7549 23.7415 4.50364
LeftFoot  5.17328 -0.108325 2.22001
LeftToes  -23.5988 2.48695e-006 -1.03773e-007
Spine  0.917439 0.110298 1.62962
Spine1  1.35062 0.14622 3.23873
RightShoulder  0.189456 8.44999 9.63648
RightArm  -26.5943 -14.897 70.4796
RightForeArm  33.0074 13.218 2.36763
RightHand  0.218807 -5.12348 -4.54664
LeftShoulder1  0.0987614 -2.35561 -11.0963
LeftArm  -11.8136 12.5531 -70.6258
LeftForeArm  32.158 -14.1909 -2.54847
LeftHand  0.104845 3.44705 3.08382
HEad  -15.6763 -27.0429 6.68579
RightUpLeg  -12.4144 -6.53924 3.45507
RightLeg  17.0055 25.9466 5.92881
RightFoot  -1.86313 -0.0198603 -0.89743
RightToes  -22.372 -0.101678 -0.202326
483
root  33.7107 34.0506 13.8352 -170.25 37.0703 -175.989
LeftUpLeg  -8.85719 12.5747 11.0319
LeftLeg  14.7394 23.7163 4.4927
LeftFoot  5.18447 -0.108456 2.22205
LeftToes  -23.5419 2.48695e-006 -1.03773e-007
Spine  0.917182 0.104394 1.62269
Spine1  1.3502 0.13534 3.22558
RightShoulder  0.189472 8.44499 9.65699
RightArm  -26.567 -14.8795 70.4444
RightForeArm  32.9605 13.2353 2.37087
RightHand  0.219735 -5.14336 -4.61947
LeftShoulder1  0.0987614 -2.27824 -11.0989
LeftArm  -11.8577 12.518 -70.5646
LeftForeArm  32.2197 -14.147 -2.54022
LeftHand  0.10515 3.48643 3.1424
HEad  -15.6652 -27.0308 6.69082
RightUpLeg  -12.4459 -6.55554 3.48853
RightLeg  17.0451 25.8977 5.93651
RightFoot  -1.89689 -0.0189266 -0.911937
RightToes  -22.3611 -0.101678 -0.202326
484
root  33.7164 34.0484 13.8376 -170.237 37.0481 -175.983
LeftUpLeg  -8.86702 12.5329 11.0461
LeftLeg  14.7365 23.7405 4.48644
LeftFoot  5.18026 -0.10821 2.21821
LeftToes  -23.5019 2.48695e-006 -1.03773e-007
Spine  0.916409 0.104046 1.61656
Spine1  1.34921 0.134045 3.21433
RightShoulder  0.189463 8.46234 9.65724
RightArm  -26.5605 -14.8684 70.441
RightForeArm  32.9604 13.2183 2.36773
RightHand  0.220015 -5.1576 -4.64769
LeftShoulder1  0.0987614 -2.25327 -11.1059
LeftArm  -11.914 12.4956 -70.5244
LeftForeArm  32.2145 -14.127 -2.53648
LeftHand  0.105508 3.51388 3.19564
HEad  -15.6795 -27.0263 6.67316
RightUpLeg  -12.4632 -6.57205 3.50678
RightLeg  17.0756 25.8926 5.94934
RightFoot  -1.9167 -0.0183123 -0.921484
RightToes  -22.3635 -0.101678 -0.202326
485
root  33.7272 34.046 13.8405 -170.226 37.0069 -175.975
LeftUpLeg  -8.87583 12.5019 11.0687
LeftLeg  14.7371 23.7406 4.48898
LeftFoot  5.16579 -0.10807 2.21603
LeftToes  -23.4758 2.48695e-006 -1.03773e-007
Spine  0.915061 0.106084 1.60218
Spine1  1.34761 0.136868 3.18972
RightShoulder  0.189437 8.47368 9.62667
RightArm  -26.5614 -14.8733 70.4807
RightForeArm  32.9515 13.19 2.36247
RightHand  0.219822 -5.15948 -4.63742
LeftShoulder1  0.0987614 -2.2403 -11.1249
LeftArm  -11.9663 12.469 -70.4438
LeftForeArm  32.3009 -14.0843 -2.52843
LeftHand  0.104964 3.55043 3.17594
HEad  -15.6805 -26.9991 6.62536
RightUpLeg  -12.4837 -6.58635 3.53106
RightLeg  17.1342 25.8693 5.97113
RightFoot  -1.95245 -0.0172399 -0.938147
RightToes  -22.3742 -0.101678 -0.202326
486
root  33.7334 34.0452 13.843 -170.222 36.9858 -175.971
LeftUpLeg  -8.88225 12.479 11.085
LeftLeg  14.7387 23.7393 4.49391
LeftFoot  5.18608 -0.108625 2.22468
LeftToes  -23.5232 2.48695e-006 -1.03773e-007
Spine  0.913079 0.108155 1.59151
Spine1  1.34354 0.13976 3.17147
RightShoulder  0.189426 8.47282 9.60974
RightArm  -26.5696 -14.8818 70.5169
RightForeArm  32.9272 13.1816 2.36093
RightHand  0.219557 -5.1787 -4.63641
LeftShoulder1  0.0987614 -2.23165 -11.1471
LeftArm  -11.992 12.4492 -70.3908
LeftForeArm  32.3909 -14.0471 -2.52141
LeftHand  0.105044 3.57058 3.19889
HEad  -15.6343 -26.9488 6.56807
RightUpLeg  -12.4924 -6.63718 3.54854
RightLeg  17.1597 25.8978 5.98884
RightFoot  -1.95514 -0.0170784 -0.940657
RightToes  -22.3531 -0.101678 -0.202326
487
root  33.7405 34.0446 13.8443 -170.219 36.9603 -175.969
LeftUpLeg  -8.88487 12.4473 11.1015
LeftLeg  14.7398 23.7419 4.49743
LeftFoot  5.18667 -0.108651 2.22508
LeftToes  -23.467 2.48695e-006 -1.03773e-007
Spine  0.908279 0.109507 1.58148
Spine1  1.33377 0.141439 3.15428
RightShoulder  0.189426 8.45722 9.5963
RightArm  -26.58 -14.898 70.5533
RightForeArm  32.9168 13.1779 2.36025
RightHand  0.220127 -5.17281 -4.66634
LeftShoulder1  0.0987614 -2.21549 -11.1679
LeftArm  -12.0176 12.4383 -70.3488
LeftForeArm  32.3982 -14.0115 -2.51476
LeftHand  0.105616 3.53842 3.22415
HEad  -15.5777 -26.8891 6.50018
RightUpLeg  -12.4924 -6.6614 3.56565
RightLeg  17.1768 25.8887 5.99471
RightFoot  -1.97291 -0.0165392 -0.949035
RightToes  -22.2771 -0.101678 -0.202326
488
root  33.7524 34.0441 13.8485 -170.215 36.9215 -175.961
LeftUpLeg  -8.88903 12.3995 11.1312
LeftLeg  14.74 23.7503 4.499
LeftFoot  5.20321 -0.109185 2.23338
LeftToes  -23.5026 2.48695e-006 -1.03773e-007
Spine  0.899823 0.118658 1.56635
Spine1  1.3172 0.158338 3.12735
RightShoulder  0.189423 8.44098 9.57654
RightArm  -26.5963 -14.9315 70.5986
RightForeArm  32.9226 13.1761 2.35993
RightHand  0.220685 -5.14749 -4.68036
LeftShoulder1  0.0987614 -2.1556 -11.2049
LeftArm  -12.0981 12.4233 -70.3231
LeftForeArm  32.3865 -13.9887 -2.5105
LeftHand  0.105432 3.58094 3.24109
HEad  -15.5024 -26.7762 6.35699
RightUpLeg  -12.4947 -6.72706 3.59495
RightLeg  17.1955 25.9224 6.01047
RightFoot  -1.99226 -0.0158205 -0.960202
RightToes  -22.1999 -0.101678 -0.202326
